<?xml version="1.0" standalone="no"?>
<!DOCTYPE svg PUBLIC "-//W3C//DTD SVG 20010904//EN"
 "http://www.w3.org/TR/2001/REC-SVG-20010904/DTD/svg10.dtd">
<svg version="1.0" xmlns="http://www.w3.org/2000/svg"
 width="512.000000pt" height="512.000000pt" viewBox="0 0 512.000000 512.000000"
 preserveAspectRatio="xMidYMid meet">
<metadata>
Created by potrace 1.14, written by Peter Selinger 2001-2017
</metadata>
<g transform="translate(0.000000,512.000000) scale(0.100000,-0.100000)"
fill="#000000" stroke="none">
<path d="M0 2560 l0 -2560 1521 0 1522 0 -39 31 c-35 28 -44 30 -84 25 -147
-21 -137 -22 -179 21 -54 58 -67 111 -46 194 9 35 23 79 31 97 l14 34 29 -22
c17 -11 66 -30 110 -41 l79 -20 120 25 c115 24 174 44 187 66 8 14 4 13 -46
-9 -24 -10 -55 -22 -69 -25 -23 -6 -23 -6 3 9 43 25 27 27 -31 5 -52 -20 -52
-20 -125 0 -73 20 -220 88 -215 99 2 4 12 28 23 54 17 39 24 47 47 47 29 0 98
59 98 84 0 7 9 25 21 40 15 19 30 26 54 26 24 0 39 7 53 25 24 30 52 31 107 6
57 -26 99 -64 119 -109 l18 -40 45 25 c58 33 134 111 195 201 27 39 46 72 44
72 -3 0 -24 -28 -48 -63 -56 -83 -144 -175 -191 -199 -22 -11 -40 -18 -40 -16
-29 59 -49 86 -79 107 -35 25 -88 117 -88 154 0 8 -5 17 -10 19 -47 15 183
314 280 363 l48 25 56 -83 c31 -45 67 -109 81 -142 31 -77 33 -56 1 27 -12 35
-26 81 -30 102 -4 22 -19 62 -32 89 -39 76 -33 83 86 106 51 11 125 0 183 -26
l38 -16 -7 -56 c-7 -62 -31 -117 -77 -175 l-31 -39 42 28 c23 15 59 51 79 79
20 28 38 53 40 55 7 10 55 -46 78 -93 31 -63 35 -154 7 -179 -22 -20 -82 -46
-147 -64 l-50 -13 45 5 c25 3 69 17 97 30 l53 24 -16 -30 c-15 -30 -15 -31 8
-24 13 4 31 9 40 11 29 8 75 85 82 137 4 27 20 76 36 109 41 87 53 156 48 280
l-4 107 -61 93 c-45 69 -61 103 -62 133 -1 21 -7 45 -13 53 -17 20 -168 107
-283 164 -146 71 -153 76 -182 119 -29 44 -29 44 -63 24 -37 -21 -64 -18 -125
15 -30 17 -61 30 -67 30 -6 0 -22 9 -34 21 -34 31 -63 18 -59 -26 2 -19 -1
-35 -5 -35 -5 0 -6 -7 -3 -17 5 -11 3 -14 -6 -8 -10 6 -11 2 -6 -15 5 -17 4
-21 -5 -15 -8 5 -11 4 -6 -3 3 -6 1 -23 -5 -39 l-11 -28 -15 30 c-9 17 -29 41
-45 55 -28 24 -30 31 -35 113 -8 122 -20 117 -15 -6 4 -96 6 -104 36 -142 17
-22 39 -46 48 -53 24 -17 23 -35 -1 -27 -13 4 -20 0 -24 -15 -5 -19 -13 -20
-166 -19 -89 0 -166 -3 -171 -6 -22 -14 -7 22 50 122 34 58 59 107 58 109 -5
5 -128 -200 -134 -223 -4 -16 -17 -22 -51 -27 -26 -3 -48 -4 -50 -3 -6 7 211
341 265 407 45 56 62 88 98 190 5 12 8 12 20 -4 12 -17 14 -17 14 -3 0 20 80
97 118 114 15 7 21 12 15 13 -22 0 -14 20 7 20 11 0 20 5 20 11 0 6 -7 9 -15
5 -18 -7 -19 -4 -1 38 10 25 38 49 109 95 53 34 108 79 123 99 26 36 25 35
-22 -9 -51 -48 -194 -144 -194 -131 0 5 11 30 24 58 13 27 36 87 51 134 15 47
32 90 39 96 6 6 63 33 126 59 98 41 167 75 150 75 -11 0 -110 -41 -192 -78
-47 -22 -89 -38 -92 -34 -16 15 -2 48 43 102 51 61 115 150 108 150 -2 0 -33
-40 -69 -88 -86 -114 -94 -121 -109 -90 -10 22 -4 34 56 119 37 52 73 108 81
124 8 18 9 22 2 11 -114 -167 -151 -216 -159 -211 -17 11 -10 24 66 126 70 94
111 159 101 159 -2 0 -14 -17 -26 -37 -30 -51 -150 -213 -159 -213 -3 0 -13
13 -23 29 -16 29 -16 30 60 180 60 120 76 161 80 207 5 55 8 61 86 150 45 51
92 112 105 136 28 51 21 44 -44 -40 -26 -34 -51 -60 -53 -57 -3 3 -25 -14 -49
-37 -33 -33 -43 -38 -43 -24 0 11 17 34 38 52 20 18 31 33 23 34 -7 0 -22 -11
-33 -25 -32 -40 -37 -29 -17 35 27 86 51 215 46 242 -4 20 -4 20 -6 -5 -1 -36
-41 -218 -51 -237 -5 -9 -10 5 -15 42 -4 35 -3 63 4 76 17 31 13 41 -5 12
l-15 -25 4 32 c2 18 0 30 -3 28 -4 -2 -12 26 -19 63 -7 37 -15 73 -20 80 -4 8
-25 -13 -57 -61 -81 -116 -206 -268 -315 -384 l-102 -108 119 120 c66 66 157
168 203 228 46 59 86 106 88 104 6 -7 -39 -101 -81 -167 -22 -36 -85 -121
-139 -190 -54 -69 -77 -102 -52 -75 82 89 204 258 250 347 47 89 52 103 35 93
-15 -9 -12 11 4 24 21 18 13 -52 -16 -134 -14 -38 -28 -79 -32 -90 -3 -11 5 4
20 33 14 29 36 94 48 145 l23 92 17 -75 c47 -215 58 -419 25 -502 -39 -101
-132 -278 -145 -278 -8 0 -14 5 -14 11 0 5 -5 7 -11 3 -8 -4 -3 -11 12 -20 31
-16 109 -152 116 -201 10 -77 -89 -323 -130 -323 -6 0 1 13 16 28 15 15 27 31
27 35 0 4 -25 -21 -56 -56 -32 -34 -75 -72 -98 -85 -23 -13 -33 -21 -23 -18
10 3 17 0 17 -7 0 -22 -66 -209 -90 -257 -39 -78 -240 -260 -308 -280 -25 -7
-42 -3 -89 20 -32 15 -76 42 -98 60 -80 64 -154 203 -181 337 -5 27 -4 31 12
27 11 -3 46 2 79 10 58 14 59 14 28 21 -18 4 -33 12 -33 18 0 6 -16 7 -39 3
-61 -9 -86 7 -97 64 -12 57 3 59 29 5 11 -23 24 -35 37 -35 11 0 20 5 20 10 0
6 -8 10 -19 10 -13 0 -24 16 -40 56 -12 32 -20 58 -18 60 2 2 31 -8 64 -23 46
-20 63 -33 71 -56 10 -27 14 -29 47 -24 39 6 88 -10 82 -27 -4 -12 -43 -13
-127 -3 -38 5 -29 1 30 -11 64 -14 89 -16 100 -7 17 13 77 5 70 -10 -6 -13 71
-19 79 -7 8 13 41 17 61 8 8 -3 65 2 125 12 l110 18 24 44 c28 50 40 40 17
-14 -8 -20 -13 -36 -11 -36 3 0 21 17 40 38 37 39 89 137 100 187 3 17 -6 3
-19 -29 -26 -59 -86 -160 -92 -153 -2 1 4 23 12 47 9 25 18 67 21 95 4 40 54
155 68 155 1 0 -6 -28 -16 -61 -11 -34 -17 -64 -15 -67 5 -5 38 104 56 190 18
80 7 160 -30 232 -17 32 -29 65 -26 73 3 8 2 12 -3 9 -5 -3 -16 5 -24 18 -16
24 -83 47 -134 45 -17 -1 -4 -6 32 -14 33 -6 67 -15 75 -19 9 -4 35 -46 59
-94 73 -147 69 -211 -27 -374 -49 -84 -153 -195 -172 -183 -7 4 -11 41 -10
108 2 207 4 195 -40 239 -28 28 -45 38 -57 34 -23 -9 -102 -70 -97 -75 2 -2
12 3 22 12 24 22 38 22 21 0 -13 -17 -13 -17 7 -1 26 23 35 23 27 1 -6 -17 -5
-17 14 0 22 19 38 23 27 6 -5 -8 -1 -8 14 0 14 7 23 8 27 1 3 -5 -1 -10 -9
-10 -21 0 -20 -4 9 -49 24 -35 26 -46 23 -126 l-3 -88 -90 -64 c-50 -35 -98
-61 -107 -59 -12 3 -18 -4 -20 -22 -2 -14 -9 -28 -17 -30 -8 -3 -11 0 -8 5 3
5 2 15 -4 23 -7 12 -9 10 -9 -7 0 -39 -17 -25 -25 20 -5 24 -10 35 -12 24 -6
-23 -3 -24 -98 48 -97 73 -145 121 -145 143 0 56 163 228 193 205 6 -6 20 -10
30 -10 16 0 16 2 2 26 -12 19 -8 17 14 -7 29 -33 29 -34 36 -11 l7 22 20 -24
19 -24 -15 30 c-8 17 -21 38 -28 49 -14 18 -16 18 -49 1 -123 -62 -314 -256
-378 -384 l-37 -73 -17 76 c-9 42 -20 134 -23 204 -8 142 -7 143 69 257 72
107 279 305 364 349 45 22 92 20 146 -7 25 -13 44 -20 40 -14 -11 18 -89 47
-128 47 -48 0 -101 -33 -220 -138 -52 -47 -82 -67 -86 -59 -17 30 -53 151 -74
252 -15 67 -22 88 -19 55 8 -72 47 -227 72 -283 l20 -44 -41 -44 c-22 -24 -66
-84 -98 -134 -47 -71 -59 -98 -59 -129 0 -34 -7 -48 -48 -91 l-47 -50 48 45
c38 36 47 41 47 24 0 -12 -35 -52 -90 -102 -50 -46 -90 -79 -90 -74 0 14 78
123 123 172 l42 45 -43 -40 c-24 -22 -58 -60 -76 -85 -45 -61 -93 -145 -78
-136 7 4 12 2 12 -4 0 -6 4 -9 9 -6 4 3 16 -3 26 -14 20 -22 40 -27 29 -7 -4
7 -3 9 2 4 5 -5 9 -12 9 -16 0 -5 26 -33 59 -64 40 -37 56 -59 51 -69 -5 -7
-5 -10 0 -6 8 7 70 -33 93 -61 15 -18 15 -80 1 -141 -12 -52 -80 -125 -145
-153 -21 -10 -48 -23 -59 -29 -19 -10 -19 -10 -2 9 17 20 17 21 -13 33 -24 10
-37 10 -56 1 -14 -6 -37 -11 -52 -11 -19 0 -51 -19 -101 -60 -41 -33 -77 -60
-82 -60 -4 0 -20 5 -35 12 -24 11 -28 10 -46 -15 -12 -17 -57 -46 -112 -72
-50 -24 -103 -53 -118 -65 -44 -34 -208 -140 -217 -140 -9 0 -21 -28 -42 -95
-7 -22 -33 -77 -59 -121 -66 -117 -86 -213 -70 -353 9 -80 8 -114 -1 -151 -11
-42 -10 -52 5 -75 19 -30 53 -45 99 -45 l31 0 -30 33 -29 32 32 -29 c18 -16
30 -32 28 -36 -6 -9 37 -40 80 -58 30 -12 30 -12 2 -7 l-27 5 50 -99 c32 -65
62 -109 84 -128 24 -19 31 -30 23 -35 -9 -6 -9 -11 0 -25 7 -10 45 -74 86
-143 l75 -125 -5 -63 c-5 -60 -3 -67 30 -116 33 -50 38 -53 86 -59 67 -8 91
-22 91 -53 0 -14 8 -39 17 -55 13 -22 14 -32 6 -40 -20 -20 -63 15 -63 51 0
34 -9 41 -58 47 -62 9 -79 20 -121 82 -39 57 -41 64 -41 133 0 73 0 73 -74
198 -41 69 -91 144 -112 167 -22 23 -64 93 -94 155 l-55 113 -55 13 c-66 16
-75 24 -102 76 -17 34 -19 45 -9 77 7 24 9 80 5 162 -5 81 -3 147 5 188 7 35
13 71 14 79 2 8 26 55 55 103 33 56 55 105 59 134 3 25 16 57 30 73 45 54 357
250 397 250 9 0 41 22 70 50 50 47 54 49 82 38 29 -10 35 -8 109 51 54 43 84
61 98 57 10 -2 30 0 44 7 18 8 36 8 70 -1 44 -12 48 -11 99 19 30 19 57 44 63
58 14 40 21 86 14 110 -7 26 -61 56 -135 75 -66 17 -83 39 -48 66 l25 20 -30
24 c-34 29 -39 30 -65 16 -10 -5 -25 -7 -33 -4 -17 6 -37 47 -37 73 0 10 -31
70 -68 132 -187 311 -200 337 -171 355 6 3 51 -2 100 -12 49 -10 91 -15 94
-12 3 2 -15 49 -40 102 -75 160 -80 187 -79 456 1 239 8 290 39 290 8 0 36
-28 63 -62 71 -93 113 -138 123 -132 5 3 9 21 9 40 0 36 105 315 159 422 48
96 91 102 106 14 12 -71 19 -70 73 9 27 41 68 94 90 117 35 37 45 43 69 38 26
-6 31 -1 65 52 48 74 102 127 122 119 12 -5 16 -20 16 -56 0 -27 5 -53 12 -57
7 -5 35 18 72 58 53 57 71 87 136 232 41 92 82 171 90 176 24 13 44 -4 123
-103 161 -203 205 -284 247 -454 6 -24 15 -43 20 -43 5 0 21 24 36 53 34 68
71 117 89 117 21 0 32 -27 62 -147 25 -100 28 -124 28 -311 0 -111 3 -202 7
-202 4 0 30 27 59 60 55 61 76 77 91 62 26 -26 12 -228 -36 -523 -25 -151 -40
-195 -102 -282 -36 -49 -43 -73 -21 -64 48 18 181 57 196 57 24 0 45 -25 35
-42 -19 -34 -232 -349 -266 -395 -21 -29 -48 -58 -61 -64 -50 -27 -88 -62 -77
-73 5 -5 10 -18 10 -28 0 -23 -143 -162 -197 -192 -33 -19 -38 -27 -41 -61 -3
-48 -1 -51 69 -104 45 -33 62 -41 83 -35 20 5 34 -1 61 -25 20 -17 45 -31 56
-31 11 0 40 -11 64 -25 l43 -26 43 22 42 23 56 -61 c48 -53 72 -69 171 -115
147 -69 258 -134 293 -171 20 -22 27 -39 27 -71 1 -33 13 -60 60 -135 68 -108
74 -134 68 -295 -4 -104 -7 -118 -40 -188 -20 -41 -39 -100 -43 -129 -9 -63
-16 -79 -64 -137 -27 -32 -45 -44 -74 -49 -36 -5 -43 -13 -98 -99 -33 -50 -66
-95 -74 -98 -8 -3 -31 -31 -52 -63 -21 -32 -73 -102 -115 -156 -43 -54 -80
-108 -83 -120 -2 -12 -9 -53 -14 -92 -8 -56 -16 -75 -36 -92 -14 -13 -34 -23
-44 -23 -22 0 -41 -19 -41 -41 0 -9 -11 -28 -25 -43 -14 -15 -25 -31 -25 -37
0 -5 323 -9 855 -9 l855 0 0 2560 0 2560 -564 0 c-442 0 -565 -3 -569 -12 -4
-10 -6 -10 -6 -1 -1 10 -413 13 -1991 13 l-1990 0 0 -2560z m4320 2480 c0 -5
-4 -10 -10 -10 -5 0 -10 5 -10 10 0 6 5 10 10 10 6 0 10 -4 10 -10z m-3110
-510 c0 -5 -4 -10 -10 -10 -5 0 -10 5 -10 10 0 6 5 10 10 10 6 0 10 -4 10 -10z
m-450 -430 c0 -5 -4 -10 -10 -10 -5 0 -10 5 -10 10 0 6 5 10 10 10 6 0 10 -4
10 -10z m2711 -277 c-5 -10 -27 -34 -47 -53 -38 -35 -27 -15 25 43 28 31 36
34 22 10z m629 -103 c0 -5 -2 -10 -4 -10 -3 0 -8 5 -11 10 -3 6 -1 10 4 10 6
0 11 -4 11 -10z m-3120 -200 c0 -5 -2 -10 -4 -10 -3 0 -8 5 -11 10 -3 6 -1 10
4 10 6 0 11 -4 11 -10z m-790 -276 c0 -8 -5 -12 -10 -9 -6 4 -8 11 -5 16 9 14
15 11 15 -7z m2417 -111 c14 -17 14 -17 8 2 -5 15 -3 17 5 8 8 -7 9 -17 3 -28
-9 -15 -12 -14 -27 9 -19 29 -11 35 11 9z m229 -18 c9 -9 2 -11 -32 -11 -34 1
-41 3 -30 12 20 14 48 14 62 -1z m-271 -5 c3 -6 -1 -7 -9 -4 -18 7 -21 14 -7
14 6 0 13 -4 16 -10z m-1375 -4 c0 -3 -4 -8 -10 -11 -5 -3 -10 -1 -10 4 0 6 5
11 10 11 6 0 10 -2 10 -4z m920 -161 c0 -22 -2 -24 -14 -13 -10 9 -11 17 -4
26 15 17 18 15 18 -13z m275 -123 c93 -65 209 -152 201 -152 -3 0 -75 34 -158
75 -84 41 -159 75 -165 75 -7 0 -13 5 -13 11 0 18 34 57 45 51 6 -3 46 -30 90
-60z m-381 -36 c6 -26 5 -28 -8 -17 -8 7 -19 10 -23 8 -5 -3 -16 1 -26 8 -17
12 -16 15 10 45 l27 33 6 -24 c4 -13 10 -37 14 -53z m1048 69 c3 -3 1 -24 -5
-46 -7 -28 -13 -37 -20 -30 -6 6 -15 11 -21 11 -6 0 -6 -4 1 -11 8 -8 4 -23
-13 -53 l-23 -42 -107 -17 c-59 -9 -111 -14 -116 -11 -20 13 47 41 85 36 43
-5 69 12 65 42 -2 13 3 21 12 21 29 1 65 27 94 66 29 39 37 44 48 34z m-1130
-47 c-7 -7 -12 -8 -12 -2 0 14 12 26 19 19 2 -3 -1 -11 -7 -17z m-416 -9 c9
-15 -11 -33 -30 -26 -9 4 -13 13 -10 22 7 17 30 20 40 4z m1372 -44 c-25 -24
-178 -99 -185 -91 -4 4 -1 11 7 16 8 5 53 33 100 64 66 43 86 52 88 39 2 -8
-2 -21 -10 -28z m318 -41 c-20 -56 -35 -78 -78 -116 -29 -26 -58 -48 -65 -48
-18 0 22 93 44 101 23 9 38 27 48 59 7 22 65 83 73 75 1 -1 -8 -33 -22 -71z
m-756 11 c24 -13 24 -14 4 -15 -12 0 -27 7 -34 15 -16 19 -3 19 30 0z m435
-16 c-4 -5 -18 -9 -33 -9 l-27 1 25 13 c25 15 45 12 35 -5z m245 -18 c-10 -20
-30 -37 -30 -27 0 6 33 46 38 46 1 0 -2 -9 -8 -19z m-970 -27 c0 -2 -9 0 -20
6 -11 6 -20 13 -20 16 0 2 9 0 20 -6 11 -6 20 -13 20 -16z m-615 -54 c3 -5 1
-10 -4 -10 -6 0 -11 5 -11 10 0 6 2 10 4 10 3 0 8 -4 11 -10z m763 -260 c35
-36 206 -322 256 -428 10 -20 16 -23 56 -18 25 2 74 12 110 21 70 17 330 32
375 21 26 -7 26 -7 10 -32 -20 -30 -11 -46 10 -18 26 35 15 0 -14 -44 -28 -43
-46 -54 -46 -29 0 9 -26 12 -95 13 -52 1 -79 0 -60 -2 115 -12 141 -16 136
-21 -3 -4 -1 -12 5 -19 15 -18 -39 -86 -84 -107 -26 -13 -230 -47 -277 -47 -5
0 -12 9 -15 20 -4 11 -18 34 -33 51 -19 23 -25 42 -24 68 1 28 -1 32 -8 16 -5
-11 -9 -52 -9 -92 l-1 -72 -46 -7 c-48 -7 -159 1 -236 17 -30 7 -69 27 -110
59 -64 48 -151 134 -133 129 20 -5 165 33 159 42 -3 5 -9 7 -14 4 -5 -3 -26 1
-46 10 -20 8 -60 18 -89 21 -48 6 -53 9 -62 39 l-10 32 91 7 c115 8 272 -8
356 -38 105 -38 108 -38 38 -4 -55 26 -68 37 -68 55 0 13 4 23 9 23 5 0 -13
44 -40 98 -27 53 -51 102 -53 107 -2 6 -6 7 -10 3 -4 -3 -2 -16 4 -29 15 -27
-3 -122 -31 -168 -17 -28 -23 -31 -72 -31 -46 0 -111 14 -126 27 -11 8 55 63
76 63 22 0 23 4 23 64 0 92 12 190 21 175 5 -9 11 -5 20 14 6 14 17 24 23 20
6 -3 -2 9 -19 28 -42 46 0 14 53 -41z m-257 -150 c-50 -46 -61 -49 -60 -17 0
18 2 19 7 5 6 -15 12 -13 47 17 55 47 60 43 6 -5z m753 -29 c-35 -73 -152
-251 -169 -257 -38 -15 -66 28 -143 215 -3 9 10 5 37 -11 45 -27 86 -79 94
-119 2 -13 3 -6 1 16 -1 22 -6 49 -9 61 -5 17 0 23 27 33 71 27 95 40 136 75
24 20 45 36 47 36 2 0 -7 -22 -21 -49z m564 -215 c-18 -9 -23 -29 -19 -74 1
-13 -2 -29 -7 -35 -14 -17 -21 -67 -11 -73 5 -3 9 -13 8 -22 0 -11 -3 -12 -6
-4 -2 6 -13 12 -23 12 -10 0 -22 4 -25 10 -4 6 1 7 12 3 15 -5 16 -3 6 8 -15
16 -17 43 -3 34 6 -4 8 -11 5 -16 -4 -5 -1 -9 4 -9 14 0 14 37 1 42 -6 2 -8
16 -4 35 4 18 10 30 14 28 5 -3 6 3 3 14 -2 10 0 36 6 59 l11 41 23 -22 c21
-20 21 -23 5 -31z m172 -178 c0 -34 -7 -51 -35 -83 -39 -45 -45 -34 -14 26 26
53 19 72 -11 28 -39 -57 -82 -98 -96 -92 -11 4 -9 10 9 27 13 12 42 56 66 99
43 78 43 78 62 58 13 -13 19 -35 19 -63z m1080 -8 c0 -5 -5 -10 -11 -10 -5 0
-7 5 -4 10 3 6 8 10 11 10 2 0 4 -4 4 -10z m-1280 -62 c0 -4 -9 0 -19 9 -11 9
-18 21 -15 25 6 9 33 -20 34 -34z m51 -1 c-10 -9 -11 -8 -5 6 3 10 9 15 12 12
3 -3 0 -11 -7 -18z m-1816 -98 c14 -27 24 -49 21 -49 -3 0 -15 18 -26 40 -12
23 -37 60 -58 83 l-36 42 36 -33 c20 -19 48 -56 63 -83z m2105 97 c0 -2 -8
-10 -17 -17 -16 -13 -17 -12 -4 4 13 16 21 21 21 13z m-76 -86 c-15 -22 -29
-40 -31 -40 -5 0 3 15 29 53 30 43 31 32 2 -13z m-1747 -22 c-3 -7 -5 -2 -5
12 0 14 2 19 5 13 2 -7 2 -19 0 -25z m10 -70 c-3 -7 -5 -2 -5 12 0 14 2 19 5
13 2 -7 2 -19 0 -25z m-218 -73 c0 -5 -6 1 -14 15 -8 14 -14 30 -14 35 0 6 6
-1 14 -15 8 -14 14 -29 14 -35z m235 19 c3 -8 2 -12 -4 -9 -6 3 -10 10 -10 16
0 14 7 11 14 -7z m47 -79 l10 -20 -16 20 c-9 11 -21 29 -26 40 l-10 20 16 -20
c9 -11 21 -29 26 -40z m1199 -5 c-12 -16 -24 -30 -26 -30 -3 0 4 14 16 30 12
17 24 30 26 30 3 0 -4 -13 -16 -30z m-1585 -50 c69 -25 109 -45 149 -74 46
-34 205 -254 248 -343 l40 -82 -51 -68 c-28 -37 -56 -82 -63 -100 -6 -17 -19
-34 -29 -36 -29 -8 -160 21 -181 40 -37 33 -196 280 -217 338 -19 51 -21 65
-11 103 15 62 56 141 93 180 17 17 26 32 21 32 -35 0 -137 -186 -137 -248 1
-51 38 -129 117 -247 107 -157 132 -184 200 -214 85 -39 125 -45 133 -23 3 9
23 54 44 98 29 62 52 94 96 134 53 48 197 130 230 130 7 0 13 6 13 13 0 11 30
38 65 59 6 4 21 0 34 -7 24 -12 23 -13 -33 -29 -32 -10 -56 -19 -54 -22 3 -2
34 5 70 16 93 28 280 70 325 72 49 2 89 -20 146 -78 74 -74 88 -112 80 -216
-7 -104 -9 -107 -164 -299 -191 -237 -289 -341 -354 -373 -72 -37 -180 -47
-251 -22 -64 22 -98 20 -216 -9 -55 -14 -102 -25 -103 -23 -9 9 -75 154 -75
165 0 18 1 18 97 -37 48 -27 92 -50 98 -51 5 0 18 -2 28 -4 34 -6 15 11 -64
58 -44 27 -86 46 -94 43 -7 -2 -19 2 -25 10 -7 8 -18 14 -25 14 -7 0 -46 32
-87 71 -40 39 -50 51 -21 25 29 -25 55 -46 58 -46 9 0 -45 72 -69 93 -20 17
-20 17 18 2 21 -8 43 -15 48 -15 6 0 -21 34 -61 75 -39 41 -113 139 -166 218
-93 142 -106 165 -83 151 7 -4 8 -3 4 5 -4 6 -12 8 -18 5 -8 -5 -9 -1 -5 10 5
11 3 15 -5 10 -7 -5 -9 -2 -5 9 4 11 2 14 -9 10 -9 -3 -14 1 -14 14 0 25 -26
60 -48 66 -9 3 0 3 21 2 32 -3 37 0 37 19 0 15 -12 28 -37 41 -88 47 -143 121
-143 192 l0 37 39 -60 c38 -57 91 -116 91 -99 0 4 -13 35 -30 69 -16 33 -33
87 -38 119 -10 65 -9 67 73 94 57 19 195 10 270 -17z m1535 -24 c0 -2 -8 -10
-17 -17 -16 -13 -17 -12 -4 4 13 16 21 21 21 13z m-1112 -43 c-15 -2 -42 -2
-60 0 -18 2 -6 4 27 4 33 0 48 -2 33 -4z m1082 3 c0 -2 -8 -10 -17 -17 -16
-13 -17 -12 -4 4 13 16 21 21 21 13z m-1040 -30 c0 -8 -92 -71 -96 -66 -1 3
-19 -11 -39 -30 -32 -31 -38 -33 -48 -19 -7 8 -29 36 -49 61 -21 25 -38 48
-38 51 0 3 61 6 135 6 74 1 135 0 135 -3z m1004 -21 c-4 -8 -11 -15 -16 -15
-6 0 -5 6 2 15 7 8 14 15 16 15 2 0 1 -7 -2 -15z m130 -71 c39 -20 75 -39 79
-44 5 -4 -10 -32 -32 -61 -23 -30 -41 -58 -41 -64 0 -5 -11 14 -25 43 -33 71
-39 66 -9 -10 13 -34 24 -69 23 -77 0 -9 -13 19 -28 61 -30 82 -36 92 -90 151
l-35 37 43 0 c30 0 66 -11 115 -36z m-1260 -28 c-16 -19 -30 -33 -32 -31 -2 2
9 19 24 39 16 19 30 33 32 31 2 -2 -9 -19 -24 -39z m3196 -180 c0 -3 -4 -8
-10 -11 -5 -3 -10 -1 -10 4 0 6 5 11 10 11 6 0 10 -2 10 -4z m-3704 -231 c14
-27 19 -42 11 -33 -8 10 -18 14 -22 10 -5 -4 -5 -1 -1 6 4 7 -8 40 -28 76 -20
35 -36 68 -36 73 0 10 43 -64 76 -132z m1751 103 c-3 -8 -6 -5 -6 6 -1 11 2
17 5 13 3 -3 4 -12 1 -19z m-1572 -407 c-7 -6 -34 19 -57 53 -19 27 -16 26 20
-9 22 -22 39 -42 37 -44z"/>
<path d="M1140 1169 c0 -18 52 -103 71 -115 7 -4 1 8 -14 27 -14 19 -33 50
-41 69 -8 19 -15 28 -16 19z"/>
<path d="M2661 775 c-36 -25 -66 -43 -69 -40 -7 7 -39 -12 -138 -86 -96 -71
-121 -85 -88 -47 10 12 -21 -6 -71 -38 -49 -33 -132 -77 -184 -98 -84 -33
-102 -37 -175 -35 -44 1 -89 6 -99 11 -30 15 -33 0 -6 -28 42 -46 119 -84 170
-84 54 0 117 37 268 159 107 85 289 223 312 235 23 12 -5 -10 -141 -113 -69
-52 -127 -96 -129 -98 -2 -1 -2 -5 1 -8 3 -3 87 56 185 132 99 76 193 148 209
160 51 39 21 24 -45 -22z m-311 -199 c0 -2 -12 -12 -27 -21 l-28 -18 19 21
c17 20 36 29 36 18z m-100 -70 c0 -2 -8 -10 -17 -17 -16 -13 -17 -12 -4 4 13
16 21 21 21 13z"/>
<path d="M2927 4895 c6 -117 11 -131 12 -30 0 44 -4 89 -8 100 -5 11 -7 -19
-4 -70z"/>
<path d="M2511 4540 c-6 -28 -10 -86 -9 -128 2 -70 2 -72 5 -17 1 33 6 80 10
105 7 37 9 25 14 -75 l6 -120 0 138 c0 76 -3 140 -8 142 -4 3 -12 -18 -18 -45z"/>
<path d="M2560 4499 c0 -27 31 -195 50 -269 21 -80 85 -248 102 -265 5 -5 2 9
-7 33 -21 51 -17 70 57 266 27 71 47 131 45 133 -4 3 -86 -206 -107 -272 -15
-50 -30 -67 -30 -36 0 13 16 60 35 104 19 45 28 73 20 63 -8 -11 -25 -46 -37
-78 -13 -32 -26 -58 -29 -58 -11 0 -47 145 -67 268 -17 99 -32 152 -32 111z"/>
<path d="M3285 4328 c-68 -102 -163 -204 -340 -367 -49 -46 -74 -71 -55 -56
83 65 284 255 329 310 45 56 102 141 130 193 25 47 2 18 -64 -80z"/>
<path d="M2295 4309 c-21 -34 -49 -83 -62 -108 -13 -25 -21 -35 -17 -21 4 14
17 47 31 73 33 66 44 97 34 97 -9 0 -61 -111 -82 -175 l-13 -40 -10 38 c-5 20
-13 37 -18 37 -10 0 -1 -40 19 -88 14 -33 5 -102 -18 -145 -6 -10 -13 -62 -16
-116 -6 -104 6 -194 38 -288 l18 -53 -45 -31 c-25 -17 -47 -29 -49 -27 -1 1
-17 46 -33 98 -17 52 -31 85 -32 73 0 -12 13 -58 29 -103 15 -44 25 -83 21
-85 -24 -15 -100 245 -100 341 0 24 -4 44 -10 44 -26 0 14 -211 62 -328 28
-67 29 -75 15 -90 -15 -14 -18 -11 -37 34 -28 65 -67 199 -81 282 -7 37 -16
71 -21 77 -14 16 -8 -37 16 -130 l23 -89 -29 34 c-51 61 -92 122 -140 215 -26
50 -48 86 -48 82 0 -14 79 -167 110 -212 15 -22 47 -65 71 -95 26 -32 57 -89
75 -137 l31 -82 -29 -27 c-27 -27 -28 -27 -43 -8 -8 10 -33 54 -57 97 -58 105
-73 124 -43 53 14 -32 44 -85 66 -118 40 -59 40 -59 22 -84 -10 -14 -32 -51
-50 -82 -18 -31 -33 -51 -33 -44 0 6 -5 12 -10 12 -7 0 -7 -6 0 -19 5 -11 10
-29 10 -41 0 -20 -1 -20 -51 6 -28 14 -49 21 -45 16 3 -5 23 -17 46 -27 35
-16 40 -22 40 -52 0 -18 -4 -33 -9 -33 -5 0 -36 20 -69 45 -33 25 -64 45 -68
45 -11 0 34 -38 94 -81 l42 -30 0 -85 c0 -54 4 -83 10 -79 6 3 10 43 10 88 0
177 37 289 129 389 51 55 190 168 208 168 5 0 20 -26 33 -57 12 -32 27 -62 33
-68 6 -7 8 -7 6 0 -2 6 -23 57 -46 115 -80 203 -90 337 -39 526 22 80 85 239
91 232 2 -2 -4 -32 -12 -68 -15 -71 -19 -311 -5 -370 5 -21 6 23 4 110 -5 163
12 280 54 384 13 32 22 61 20 63 -2 2 -21 -24 -41 -58z"/>
<path d="M3265 4350 c-7 -22 -148 -142 -232 -198 -57 -38 -72 -54 -23 -25 117
69 311 243 271 243 -5 0 -13 -9 -16 -20z"/>
<path d="M3133 4300 c0 -30 2 -43 4 -27 2 15 2 39 0 55 -2 15 -4 2 -4 -28z"/>
<path d="M2446 4281 c-4 -33 -4 -101 -2 -153 5 -80 4 -88 -6 -58 -7 19 -15 37
-18 40 -4 3 -17 35 -29 71 -16 48 -20 78 -15 108 6 37 5 41 -15 41 -20 0 -21
-4 -15 -37 15 -87 166 -441 196 -459 4 -3 -13 38 -39 91 l-46 95 1 160 c1 88
0 160 -2 160 -2 0 -6 -27 -10 -59z"/>
<path d="M2098 4300 c-4 -14 -7 -43 -7 -65 l1 -40 9 34 c6 18 9 47 7 65 -3 30
-3 30 -10 6z"/>
<path d="M2541 4254 c0 -11 3 -14 6 -6 3 7 2 16 -1 19 -3 4 -6 -2 -5 -13z"/>
<path d="M2027 4168 c-36 -115 -49 -192 -45 -268 l3 -65 13 108 c7 60 24 152
37 205 14 52 23 97 21 99 -2 2 -15 -34 -29 -79z"/>
<path d="M2341 4214 c0 -11 3 -14 6 -6 3 7 2 16 -1 19 -3 4 -6 -2 -5 -13z"/>
<path d="M3100 4150 c-30 -27 -92 -78 -137 -112 -45 -35 -82 -66 -82 -71 -1
-10 207 155 249 198 48 49 35 43 -30 -15z"/>
<path d="M3387 4133 c-9 -36 -16 -68 -13 -70 2 -2 12 26 21 62 10 36 16 67 14
70 -3 2 -12 -26 -22 -62z"/>
<path d="M2422 4145 c0 -16 2 -22 5 -12 2 9 2 23 0 30 -3 6 -5 -1 -5 -18z"/>
<path d="M2121 4114 c0 -11 3 -14 6 -6 3 7 2 16 -1 19 -3 4 -6 -2 -5 -13z"/>
<path d="M2141 3994 c0 -11 3 -14 6 -6 3 7 2 16 -1 19 -3 4 -6 -2 -5 -13z"/>
<path d="M1764 3913 c17 -35 104 -153 111 -153 3 0 -12 24 -33 53 -21 28 -48
69 -61 90 -26 43 -38 50 -17 10z"/>
<path d="M1730 3777 c0 -8 10 -46 21 -83 29 -95 174 -383 186 -370 3 2 -16 40
-42 84 -60 104 -119 242 -135 315 -13 54 -30 86 -30 54z"/>
<path d="M2480 3784 c0 -6 7 -19 16 -30 14 -18 14 -18 3 6 -14 31 -19 36 -19
24z"/>
<path d="M2540 3670 c6 -11 13 -20 16 -20 2 0 0 9 -6 20 -6 11 -13 20 -16 20
-2 0 0 -9 6 -20z"/>
<path d="M2670 3513 c14 -9 34 -23 46 -32 11 -9 5 -1 -13 17 -18 17 -38 32
-45 32 -7 0 -1 -7 12 -17z"/>
<path d="M3210 3500 c-6 -11 -8 -20 -6 -20 3 0 10 9 16 20 6 11 8 20 6 20 -3
0 -10 -9 -16 -20z"/>
<path d="M2480 3459 c-74 -56 -162 -142 -184 -182 l-17 -32 22 30 c39 53 142
147 203 187 33 21 53 38 45 38 -8 0 -39 -19 -69 -41z"/>
<path d="M2130 3439 c-69 -51 -128 -108 -142 -134 -6 -11 18 7 53 41 35 34 85
76 112 94 26 18 47 35 47 37 0 10 -21 -2 -70 -38z"/>
<path d="M3180 3450 c-6 -11 -8 -20 -6 -20 3 0 10 9 16 20 6 11 8 20 6 20 -3
0 -10 -9 -16 -20z"/>
<path d="M3005 3350 c10 -11 20 -20 23 -20 3 0 -3 9 -13 20 -10 11 -20 20 -23
20 -3 0 3 -9 13 -20z"/>
<path d="M2149 3293 c-13 -16 -12 -17 4 -4 9 7 17 15 17 17 0 8 -8 3 -21 -13z"/>
<path d="M2007 3223 c-55 -73 -102 -153 -89 -153 5 0 16 15 23 32 7 18 34 60
60 94 53 71 62 84 55 84 -3 0 -25 -26 -49 -57z"/>
<path d="M2094 3248 l-29 -33 33 29 c30 28 37 36 29 36 -2 0 -16 -15 -33 -32z"/>
<path d="M2610 3262 c15 -5 37 -29 57 -62 18 -30 33 -50 33 -45 0 6 -15 33
-33 60 -23 36 -39 51 -57 52 l-25 2 25 -7z"/>
<path d="M2470 3212 c-64 -48 -163 -149 -202 -207 -11 -16 2 -5 28 25 101 116
211 210 259 223 20 5 20 5 0 6 -11 0 -49 -21 -85 -47z"/>
<path d="M2761 3239 c-12 -12 -20 -23 -18 -26 3 -2 16 7 30 21 31 31 20 35
-12 5z"/>
<path d="M3170 3247 c0 -2 15 -16 33 -33 l32 -29 -29 33 c-28 30 -36 37 -36
29z"/>
<path d="M2911 3203 c40 -41 69 -103 69 -143 0 -19 -9 -69 -20 -110 -10 -41
-17 -76 -15 -78 10 -11 40 121 40 179 0 59 -4 72 -35 118 -19 28 -42 53 -50
57 -8 3 -3 -7 11 -23z"/>
<path d="M2745 3179 c-20 -18 -40 -41 -46 -53 -6 -12 3 -7 20 13 16 19 42 42
58 52 15 11 23 19 16 19 -7 0 -28 -14 -48 -31z"/>
<path d="M1670 3180 c24 -22 160 -95 160 -86 0 2 -30 21 -67 42 -38 20 -79 44
-93 52 l-25 14 25 -22z"/>
<path d="M3367 3138 c-28 -36 -28 -46 0 -29 10 6 14 11 9 11 -5 0 -1 9 9 20
10 11 16 23 13 26 -3 3 -17 -10 -31 -28z"/>
<path d="M3400 3130 c-8 -5 -10 -10 -5 -10 6 0 17 5 25 10 8 5 11 10 5 10 -5
0 -17 -5 -25 -10z"/>
<path d="M2305 3003 c-66 -79 -151 -230 -143 -255 3 -7 12 10 22 39 20 61 72
143 145 231 28 34 50 62 47 62 -3 0 -35 -35 -71 -77z"/>
<path d="M3261 2974 c0 -11 3 -14 6 -6 3 7 2 16 -1 19 -3 4 -6 -2 -5 -13z"/>
<path d="M3241 2909 c-7 -22 -11 -43 -8 -45 2 -2 9 14 16 37 7 22 11 43 8 45
-2 2 -9 -14 -16 -37z"/>
<path d="M2500 2936 c0 -15 69 -143 84 -155 21 -18 20 -11 -8 52 -20 46 -76
122 -76 103z"/>
<path d="M2981 2909 c-6 -17 -24 -54 -41 -80 -16 -27 -30 -53 -30 -57 0 -11
61 89 77 126 8 19 12 36 10 39 -3 2 -10 -10 -16 -28z"/>
<path d="M2652 2904 c-1 -12 -5 -43 -8 -70 -5 -38 -4 -46 5 -38 8 7 11 33 8
70 -2 32 -4 50 -5 38z"/>
<path d="M2780 2896 c-46 -14 -115 -89 -103 -110 7 -13 22 -2 77 54 38 39 67
70 65 69 -2 -1 -20 -6 -39 -13z"/>
<path d="M2738 2592 c-49 -6 -30 -20 22 -18 27 2 47 -1 44 -6 -7 -10 -5 -10
56 3 27 6 50 14 50 18 0 8 -115 9 -172 3z"/>
<path d="M2577 2523 c-46 -50 -44 -72 13 -109 37 -25 39 -25 65 -8 31 20 28
39 -6 39 -22 0 -24 5 -29 60 l-5 60 -38 -42z"/>
<path d="M2710 2403 c-30 -21 -43 -24 -97 -21 -44 3 -59 1 -53 -7 6 -7 32 -9
76 -4 53 5 72 12 92 33 33 32 28 32 -18 -1z"/>
<path d="M2603 2308 c-43 -14 -42 -22 6 -37 34 -10 44 -9 70 7 l31 19 -25 11
c-30 14 -38 14 -82 0z"/>
<path d="M3138 2130 c17 -18 32 -37 32 -43 0 -6 3 -8 6 -5 9 9 -26 57 -50 70
-14 7 -10 0 12 -22z"/>
<path d="M3874 1029 c-16 -17 -51 -44 -79 -60 -27 -16 -43 -29 -35 -29 21 0
116 67 135 96 21 32 15 30 -21 -7z"/>
<path d="M3578 638 c-59 -82 -100 -148 -91 -148 3 0 -4 -11 -17 -25 -28 -29
-19 -46 10 -20 11 10 20 15 20 11 0 -3 23 5 52 20 53 27 144 107 181 158 l20
28 -24 -12 c-22 -12 -23 -12 -10 3 7 10 19 17 25 17 7 0 20 6 31 13 16 12 7
14 -67 16 l-84 1 -46 -62z m111 35 c-38 -16 -42 -16 -34 -3 3 6 2 10 -3 10 -5
0 -25 -26 -45 -57 -19 -32 -54 -76 -77 -98 l-42 -40 27 45 c16 25 47 70 71
101 41 53 44 56 89 56 l46 0 -32 -14z m11 -37 c0 -2 -8 -10 -17 -17 -16 -13
-17 -12 -4 4 13 16 21 21 21 13z m-101 -93 c-29 -32 -64 -64 -77 -71 -13 -7
10 18 50 57 40 39 75 71 77 71 2 0 -20 -26 -50 -57z"/>
<path d="M3491 289 c-24 -27 -79 -75 -123 -107 -45 -32 -102 -84 -130 -120
l-50 -62 91 0 c89 0 91 1 91 24 0 13 9 35 20 49 11 14 20 36 20 49 0 35 12 47
55 56 45 9 65 37 65 90 0 18 5 42 10 53 19 34 -4 19 -49 -32z"/>
<path d="M3210 140 c-8 -5 -10 -10 -5 -10 6 0 17 5 25 10 8 5 11 10 5 10 -5 0
-17 -5 -25 -10z"/>
<path d="M3130 120 c-14 -4 -41 -9 -60 -9 -26 -1 -31 -4 -19 -11 14 -8 125 13
138 26 7 7 -32 3 -59 -6z"/>
</g>
</svg>
